<svg xmlns="http://www.w3.org/2000/svg" xmlns:xlink="http://www.w3.org/1999/xlink" width="512" zoomAndPan="magnify" viewBox="0 0 384 74.999997" height="100" preserveAspectRatio="xMidYMid meet" version="1.0"><defs><g/><clipPath id="99e34b2eb4"><path d="M 0.257812 20.671875 L 44.160156 20.671875 L 44.160156 64.574219 L 0.257812 64.574219 Z M 0.257812 20.671875 " clip-rule="nonzero"/></clipPath><clipPath id="81b28a4325"><path d="M 42.011719 20.671875 L 62.46875 20.671875 L 62.46875 64.785156 L 42.011719 64.785156 Z M 42.011719 20.671875 " clip-rule="nonzero"/></clipPath><clipPath id="2939643f03"><path d="M 0.0117188 0.671875 L 20.46875 0.671875 L 20.46875 44.785156 L 0.0117188 44.785156 Z M 0.0117188 0.671875 " clip-rule="nonzero"/></clipPath><clipPath id="433b418bba"><rect x="0" width="21" y="0" height="45"/></clipPath><clipPath id="cbae6b54be"><path d="M 0.25 0.21875 L 42.003906 0.21875 L 42.003906 20.675781 L 0.25 20.675781 Z M 0.25 0.21875 " clip-rule="nonzero"/></clipPath><clipPath id="8fb6cadec4"><path d="M 0.25 0.21875 L 42.003906 0.21875 L 42.003906 20.675781 L 0.25 20.675781 Z M 0.25 0.21875 " clip-rule="nonzero"/></clipPath><clipPath id="b4601f43a2"><rect x="0" width="43" y="0" height="21"/></clipPath><clipPath id="31b00aff9d"><path d="M 48.746094 0.214844 L 62.46875 0.214844 L 62.46875 13.933594 L 48.746094 13.933594 Z M 48.746094 0.214844 " clip-rule="nonzero"/></clipPath><clipPath id="5d218eb709"><path d="M 0.746094 0.214844 L 14.46875 0.214844 L 14.46875 13.933594 L 0.746094 13.933594 Z M 0.746094 0.214844 " clip-rule="nonzero"/></clipPath><clipPath id="0967693fae"><rect x="0" width="15" y="0" height="14"/></clipPath><clipPath id="77da8892f2"><rect x="0" width="63" y="0" height="66"/></clipPath><clipPath id="c8fa4430fa"><rect x="0" width="259" y="0" height="75"/></clipPath></defs><g transform="matrix(1, 0, 0, 1, 22, 5)"><g clip-path="url(#77da8892f2)"><g clip-path="url(#99e34b2eb4)"><path fill="#ffffff" d="M 44.359375 40.308594 L 44.359375 20.671875 C 20 20.671875 0.257812 40.414062 0.257812 64.773438 L 19.894531 64.773438 C 19.894531 51.261719 30.847656 40.308594 44.359375 40.308594 Z M 44.359375 40.308594 " fill-opacity="1" fill-rule="nonzero"/></g><g clip-path="url(#81b28a4325)"><g transform="matrix(1, 0, 0, 1, 42, 20)"><g clip-path="url(#433b418bba)"><g clip-path="url(#2939643f03)"><path fill="#ffffff" d="M 0.0117188 0.671875 L 20.46875 0.671875 L 20.46875 44.78125 L 0.0117188 44.78125 Z M 0.0117188 0.671875 " fill-opacity="1" fill-rule="nonzero"/></g></g></g></g><g clip-path="url(#cbae6b54be)"><g transform="matrix(1, 0, 0, 1, 0, -0.000000000000002665)"><g clip-path="url(#b4601f43a2)"><g clip-path="url(#8fb6cadec4)"><path fill="#ffffff" d="M 42.003906 0.21875 L 42.003906 20.675781 L 0.210938 20.675781 L 0.210938 0.21875 Z M 42.003906 0.21875 " fill-opacity="1" fill-rule="nonzero"/></g></g></g></g><g clip-path="url(#31b00aff9d)"><g transform="matrix(1, 0, 0, 1, 48, -0.000000000000002665)"><g clip-path="url(#0967693fae)"><g clip-path="url(#5d218eb709)"><path fill="#ffffff" d="M 14.46875 0.214844 L 14.46875 13.933594 L 0.746094 13.933594 L 0.746094 0.214844 Z M 14.46875 0.214844 " fill-opacity="1" fill-rule="nonzero"/></g></g></g></g></g></g><g transform="matrix(1, 0, 0, 1, 98, -0.000000000000001893)"><g clip-path="url(#c8fa4430fa)"><g fill="#ffffff" fill-opacity="1"><g transform="translate(0.446753, 57.891236)"><g><path d="M 29.25 -38.875 C 30.945312 -37.875 32.191406 -36.53125 32.984375 -34.84375 C 33.785156 -33.164062 34.1875 -31.15625 34.1875 -28.8125 C 34.1875 -26.488281 33.796875 -24.390625 33.015625 -22.515625 C 32.242188 -20.640625 31.035156 -19.132812 29.390625 -18 C 28.222656 -17.101562 26.800781 -16.425781 25.125 -15.96875 C 23.445312 -15.519531 21.378906 -15.296875 18.921875 -15.296875 L 12.734375 -15.296875 L 12.734375 0 L 5.859375 0 L 5.859375 -41 L 18.921875 -41 C 21.316406 -41 23.34375 -40.828125 25 -40.484375 C 26.65625 -40.140625 28.070312 -39.601562 29.25 -38.875 Z M 25.296875 -23 C 25.910156 -23.5625 26.378906 -24.28125 26.703125 -25.15625 C 27.035156 -26.039062 27.203125 -27.132812 27.203125 -28.4375 C 27.203125 -29.71875 27.023438 -30.785156 26.671875 -31.640625 C 26.316406 -32.492188 25.832031 -33.160156 25.21875 -33.640625 C 24.414062 -34.273438 23.421875 -34.691406 22.234375 -34.890625 C 21.054688 -35.097656 19.644531 -35.203125 18 -35.203125 L 12.734375 -35.203125 L 12.734375 -21.15625 L 18 -21.15625 C 19.6875 -21.15625 21.132812 -21.285156 22.34375 -21.546875 C 23.550781 -21.804688 24.535156 -22.289062 25.296875 -23 Z M 25.296875 -23 "/></g></g></g><g fill="#ffffff" fill-opacity="1"><g transform="translate(35.688728, 57.891236)"><g><path d="M 11.5 0.546875 C 10.332031 0.546875 9.210938 0.394531 8.140625 0.09375 C 7.066406 -0.195312 6.113281 -0.65625 5.28125 -1.28125 C 4.445312 -1.90625 3.789062 -2.71875 3.3125 -3.71875 C 2.832031 -4.726562 2.59375 -5.929688 2.59375 -7.328125 C 2.59375 -8.878906 2.882812 -10.179688 3.46875 -11.234375 C 4.050781 -12.296875 4.847656 -13.164062 5.859375 -13.84375 C 6.878906 -14.519531 8.054688 -15.066406 9.390625 -15.484375 C 10.722656 -15.910156 12.144531 -16.257812 13.65625 -16.53125 L 18.03125 -17.34375 C 18.988281 -17.53125 19.671875 -17.835938 20.078125 -18.265625 C 20.492188 -18.703125 20.703125 -19.265625 20.703125 -19.953125 C 20.703125 -21.140625 20.425781 -22.078125 19.875 -22.765625 C 19.332031 -23.460938 18.628906 -23.957031 17.765625 -24.25 C 16.910156 -24.550781 16 -24.703125 15.03125 -24.703125 C 14 -24.703125 13.039062 -24.53125 12.15625 -24.1875 C 11.28125 -23.851562 10.554688 -23.316406 9.984375 -22.578125 C 9.421875 -21.847656 9.066406 -20.859375 8.921875 -19.609375 L 2.96875 -20.703125 C 3.457031 -23.691406 4.757812 -25.894531 6.875 -27.3125 C 9 -28.738281 11.851562 -29.453125 15.4375 -29.453125 C 16.875 -29.453125 18.28125 -29.296875 19.65625 -28.984375 C 21.039062 -28.679688 22.289062 -28.148438 23.40625 -27.390625 C 24.519531 -26.628906 25.40625 -25.585938 26.0625 -24.265625 C 26.726562 -22.941406 27.0625 -21.265625 27.0625 -19.234375 L 27.0625 -8.015625 C 27.0625 -6.660156 27.265625 -5.738281 27.671875 -5.25 C 28.085938 -4.757812 28.796875 -4.515625 29.796875 -4.515625 L 30.25 -4.515625 L 30.25 0 L 27.109375 0 C 25.484375 0 24.179688 -0.300781 23.203125 -0.90625 C 22.222656 -1.507812 21.570312 -2.484375 21.25 -3.828125 L 20.9375 -3.828125 C 20.1875 -2.773438 19.296875 -1.925781 18.265625 -1.28125 C 17.242188 -0.632812 16.148438 -0.171875 14.984375 0.109375 C 13.828125 0.398438 12.664062 0.546875 11.5 0.546875 Z M 13.0625 -4.65625 C 14.570312 -4.65625 15.9375 -5.007812 17.15625 -5.71875 C 18.375 -6.425781 19.34375 -7.425781 20.0625 -8.71875 C 20.78125 -10.019531 21.140625 -11.550781 21.140625 -13.3125 L 13.75 -11.671875 C 12.226562 -11.390625 11.054688 -10.957031 10.234375 -10.375 C 9.410156 -9.800781 9 -8.96875 9 -7.875 C 9 -6.75 9.390625 -5.929688 10.171875 -5.421875 C 10.960938 -4.910156 11.925781 -4.65625 13.0625 -4.65625 Z M 13.0625 -4.65625 "/></g></g></g><g fill="#ffffff" fill-opacity="1"><g transform="translate(66.359906, 57.891236)"><g><path d="M 23.0625 -28.921875 L 29.9375 -28.921875 L 12.3125 14.5 L 5.546875 14.5 L 12.078125 -0.953125 L 0.484375 -28.921875 L 7.765625 -28.921875 L 15.265625 -8.21875 Z M 23.0625 -28.921875 "/></g></g></g><g fill="#ffffff" fill-opacity="1"><g transform="translate(95.507486, 57.891236)"><g><path d="M 40.546875 -28.921875 L 47.453125 -28.921875 L 37.375 0.03125 L 31.3125 0.03125 L 24.046875 -20.640625 L 16.765625 0.03125 L 10.609375 0.03125 L 0.75 -28.921875 L 7.59375 -28.921875 L 14.140625 -8.453125 L 21.453125 -28.921875 L 26.5625 -28.921875 L 33.875 -8.484375 Z M 40.546875 -28.921875 "/></g></g></g><g fill="#ffffff" fill-opacity="1"><g transform="translate(142.334563, 57.891236)"><g><path d="M 11.5 0.546875 C 10.332031 0.546875 9.210938 0.394531 8.140625 0.09375 C 7.066406 -0.195312 6.113281 -0.65625 5.28125 -1.28125 C 4.445312 -1.90625 3.789062 -2.71875 3.3125 -3.71875 C 2.832031 -4.726562 2.59375 -5.929688 2.59375 -7.328125 C 2.59375 -8.878906 2.882812 -10.179688 3.46875 -11.234375 C 4.050781 -12.296875 4.847656 -13.164062 5.859375 -13.84375 C 6.878906 -14.519531 8.054688 -15.066406 9.390625 -15.484375 C 10.722656 -15.910156 12.144531 -16.257812 13.65625 -16.53125 L 18.03125 -17.34375 C 18.988281 -17.53125 19.671875 -17.835938 20.078125 -18.265625 C 20.492188 -18.703125 20.703125 -19.265625 20.703125 -19.953125 C 20.703125 -21.140625 20.425781 -22.078125 19.875 -22.765625 C 19.332031 -23.460938 18.628906 -23.957031 17.765625 -24.25 C 16.910156 -24.550781 16 -24.703125 15.03125 -24.703125 C 14 -24.703125 13.039062 -24.53125 12.15625 -24.1875 C 11.28125 -23.851562 10.554688 -23.316406 9.984375 -22.578125 C 9.421875 -21.847656 9.066406 -20.859375 8.921875 -19.609375 L 2.96875 -20.703125 C 3.457031 -23.691406 4.757812 -25.894531 6.875 -27.3125 C 9 -28.738281 11.851562 -29.453125 15.4375 -29.453125 C 16.875 -29.453125 18.28125 -29.296875 19.65625 -28.984375 C 21.039062 -28.679688 22.289062 -28.148438 23.40625 -27.390625 C 24.519531 -26.628906 25.40625 -25.585938 26.0625 -24.265625 C 26.726562 -22.941406 27.0625 -21.265625 27.0625 -19.234375 L 27.0625 -8.015625 C 27.0625 -6.660156 27.265625 -5.738281 27.671875 -5.25 C 28.085938 -4.757812 28.796875 -4.515625 29.796875 -4.515625 L 30.25 -4.515625 L 30.25 0 L 27.109375 0 C 25.484375 0 24.179688 -0.300781 23.203125 -0.90625 C 22.222656 -1.507812 21.570312 -2.484375 21.25 -3.828125 L 20.9375 -3.828125 C 20.1875 -2.773438 19.296875 -1.925781 18.265625 -1.28125 C 17.242188 -0.632812 16.148438 -0.171875 14.984375 0.109375 C 13.828125 0.398438 12.664062 0.546875 11.5 0.546875 Z M 13.0625 -4.65625 C 14.570312 -4.65625 15.9375 -5.007812 17.15625 -5.71875 C 18.375 -6.425781 19.34375 -7.425781 20.0625 -8.71875 C 20.78125 -10.019531 21.140625 -11.550781 21.140625 -13.3125 L 13.75 -11.671875 C 12.226562 -11.390625 11.054688 -10.957031 10.234375 -10.375 C 9.410156 -9.800781 9 -8.96875 9 -7.875 C 9 -6.75 9.390625 -5.929688 10.171875 -5.421875 C 10.960938 -4.910156 11.925781 -4.65625 13.0625 -4.65625 Z M 13.0625 -4.65625 "/></g></g></g><g fill="#ffffff" fill-opacity="1"><g transform="translate(173.005741, 57.891236)"><g><path d="M 14.6875 0 C 12.101562 0 10.078125 -0.734375 8.609375 -2.203125 C 7.140625 -3.671875 6.40625 -5.753906 6.40625 -8.453125 L 6.40625 -23.75 L 0.625 -23.75 L 0.625 -28.921875 L 2.609375 -28.921875 C 4.148438 -28.921875 5.28125 -29.28125 6 -30 C 6.71875 -30.71875 7.078125 -32.019531 7.078125 -33.90625 L 7.078125 -38.390625 L 13.109375 -38.390625 L 13.109375 -28.921875 L 19.40625 -28.921875 L 19.40625 -23.75 L 13.109375 -23.75 L 13.109375 -9.140625 C 13.109375 -7.796875 13.441406 -6.789062 14.109375 -6.125 C 14.785156 -5.457031 15.679688 -5.125 16.796875 -5.125 L 19.40625 -5.125 L 19.40625 0 Z M 14.6875 0 "/></g></g></g><g fill="#ffffff" fill-opacity="1"><g transform="translate(193.241705, 57.891236)"><g><path d="M 17.21875 0.515625 C 15.050781 0.515625 13.050781 0.160156 11.21875 -0.546875 C 9.394531 -1.253906 7.8125 -2.269531 6.46875 -3.59375 C 5.125 -4.914062 4.082031 -6.492188 3.34375 -8.328125 C 2.613281 -10.171875 2.25 -12.226562 2.25 -14.5 C 2.25 -16.738281 2.613281 -18.773438 3.34375 -20.609375 C 4.082031 -22.453125 5.125 -24.035156 6.46875 -25.359375 C 7.8125 -26.679688 9.394531 -27.695312 11.21875 -28.40625 C 13.050781 -29.113281 15.050781 -29.46875 17.21875 -29.46875 C 19.519531 -29.46875 21.601562 -29.070312 23.46875 -28.28125 C 25.34375 -27.5 26.925781 -26.359375 28.21875 -24.859375 C 29.519531 -23.359375 30.425781 -21.53125 30.9375 -19.375 L 24.78125 -18.578125 C 24.226562 -20.421875 23.273438 -21.8125 21.921875 -22.75 C 20.578125 -23.6875 18.992188 -24.15625 17.171875 -24.15625 C 15.554688 -24.15625 14.125 -23.753906 12.875 -22.953125 C 11.632812 -22.160156 10.65625 -21.039062 9.9375 -19.59375 C 9.21875 -18.144531 8.859375 -16.445312 8.859375 -14.5 C 8.859375 -12.5625 9.21875 -10.863281 9.9375 -9.40625 C 10.65625 -7.945312 11.632812 -6.816406 12.875 -6.015625 C 14.125 -5.222656 15.554688 -4.828125 17.171875 -4.828125 C 18.992188 -4.828125 20.578125 -5.289062 21.921875 -6.21875 C 23.273438 -7.15625 24.226562 -8.539062 24.78125 -10.375 L 30.9375 -9.609375 C 30.425781 -7.460938 29.515625 -5.632812 28.203125 -4.125 C 26.898438 -2.625 25.3125 -1.472656 23.4375 -0.671875 C 21.5625 0.117188 19.488281 0.515625 17.21875 0.515625 Z M 17.21875 0.515625 "/></g></g></g><g fill="#ffffff" fill-opacity="1"><g transform="translate(224.832793, 57.891236)"><g><path d="M 20.390625 -29.46875 C 22.441406 -29.46875 24.21875 -29.070312 25.71875 -28.28125 C 27.226562 -27.5 28.398438 -26.320312 29.234375 -24.75 C 30.066406 -23.1875 30.484375 -21.222656 30.484375 -18.859375 L 30.484375 0 L 23.8125 0 L 23.8125 -17.71875 C 23.8125 -19.289062 23.546875 -20.535156 23.015625 -21.453125 C 22.492188 -22.367188 21.800781 -23.03125 20.9375 -23.4375 C 20.070312 -23.851562 19.113281 -24.0625 18.0625 -24.0625 C 16.925781 -24.0625 15.835938 -23.820312 14.796875 -23.34375 C 13.765625 -22.863281 12.925781 -22.082031 12.28125 -21 C 11.644531 -19.914062 11.316406 -18.457031 11.296875 -16.625 L 11.296875 0 L 4.6875 0 L 4.6875 -44.171875 L 11.296875 -44.171875 L 11.296875 -25.296875 C 12.273438 -26.609375 13.539062 -27.628906 15.09375 -28.359375 C 16.644531 -29.097656 18.410156 -29.46875 20.390625 -29.46875 Z M 20.390625 -29.46875 "/></g></g></g></g></g></svg>